<svg viewBox="0 0 256 256" xmlns="http://www.w3.org/2000/svg" xml:space="preserve" style="fill-rule:evenodd;clip-rule:evenodd;stroke-linejoin:round;stroke-miterlimit:2"><path style="fill:#ebebeb;fill-opacity:0" fill="none" d="M0 0h256v256H0z"/><path d="M91.566 75.978c-10.584 5.289-39.854 29.118-48.186 35.454-2.235-.044-4.22-.551-5.965-1.429a13.773 13.773 0 0 1-3.675-2.737c-1.614-1.691-2.912-3.844-3.795-6.342-.895-2.492-1.374-5.316-1.374-8.299 0-7.181 2.759-15.267 8.996-22.039a35.93 35.93 0 0 1 9.21-7.22c5.796-3.195 12.351-4.804 19.297-5.627 5.208-.616 10.622-.791 16.075-.895 8.174-.158 16.407-.141 24.145-1.287 3.871-.577 7.617-1.445 11.161-2.791 3.55-1.353 6.887-3.185 9.908-5.677.872-.708.993-1.99.278-2.857a2.03 2.03 0 0 0-2.857-.273c-2.683 2.209-5.665 3.845-8.926 5.066-5.693 2.148-12.236 3.004-19.194 3.381-5.218.278-10.665.289-16.162.409-8.244.185-16.592.605-24.477 2.639-3.942 1.014-7.77 2.438-11.38 4.45a40.175 40.175 0 0 0-10.066 7.928c-6.935 7.53-10.065 16.587-10.065 24.793 0 3.038.43 5.966 1.265 8.665 1.265 4.04 3.435 7.59 6.489 10.142a16.832 16.832 0 0 0 5.169 2.993c1.919.704 4.013 1.075 6.238 1.075 1.079 0 2.181-.093 3.315-.268 14.275 3.032 56.076 3.135 72.314-.005 11.51-8.125-12.177-48.72-27.738-39.249ZM177.702 133.101a55.573 55.573 0 0 1-3.686 2.704 47.865 47.865 0 0 1 5.18 21.446 22.586 22.586 0 0 1-.567 5.109 41.652 41.652 0 0 0 5.752-1.57 37.743 37.743 0 0 0 11.195-6.298c3.02-2.46 5.534-5.273 7.612-8.18-.327-12.644-3.675-24.537-9.346-34.984-2.846 7.252-7.775 15.099-16.14 21.773ZM158.836 107.217c-1.238 2.671-2.771 5.387-4.63 8.146a48.261 48.261 0 0 1 17.814 16.887c4.155-2.852 7.509-5.976 10.218-9.21 4.51-5.376 7.258-11.069 8.921-16.276A78.16 78.16 0 0 0 162.86 80.16c.332 2.187.539 4.521.539 6.985 0 6.053-1.215 12.874-4.563 20.072Z" style="fill:#b93e43;fill-rule:nonzero"/><path d="M106.184 72.957c3.266 1.958 6.074 4.619 8.223 7.034 4.82 5.409 8.801 12.318 10.9 18.943 1.276 4.024 1.772 7.639 1.499 10.736a47.776 47.776 0 0 1 4.079-.196 47.884 47.884 0 0 1 19.641 4.067c1.886-2.737 3.419-5.419 4.629-8.037 3.087-6.647 4.182-12.847 4.182-18.359 0-3.381-.419-6.51-1.057-9.308-9.99-4.662-21.124-7.274-32.88-7.274a77.77 77.77 0 0 0-19.216 2.394ZM193.34 161.019c-4.493 2.715-9.842 4.754-16.123 5.714-1.707 4.117-4.215 7.677-6.298 10.725-3.043-2.421-8.027-4.689-13.643-5.998-10.404-2.415-17.82 1.685-18.354 7.918-.523 6.232 6.096 11.521 16.762 10.889a43.128 43.128 0 0 0 2.835-.257c-.393.42-.785.846-1.167 1.293-7.034 8.037-6.903 16.511-1.658 19.913 5.257 3.397 13.043.044 17.498-9.657 2.808-6.101 4.046-12.312 3.484-16.238 10.175-3.484 24.21-13.855 26.277-32.263-2.666 2.939-5.834 5.681-9.613 7.961ZM42.508 95.602a5.752 5.752 0 0 0 5.747 5.753 5.757 5.757 0 0 0 5.753-5.753 5.75 5.75 0 1 0-11.5 0ZM131.73 116.334a2.258 2.258 0 0 0-3.19 3.195l18.267 18.266a2.25 2.25 0 0 0 3.19 0 2.252 2.252 0 0 0 0-3.19l-18.267-18.271ZM119.554 119.044a2.256 2.256 0 0 0-3.195 0 2.252 2.252 0 0 0 0 3.19l18.267 18.272a2.267 2.267 0 0 0 3.195 0 2.26 2.26 0 0 0 0-3.196l-18.267-18.266ZM106.691 121.748a2.26 2.26 0 0 0-3.19 0 2.252 2.252 0 0 0 0 3.19l18.272 18.272a2.252 2.252 0 0 0 3.19 0 2.251 2.251 0 0 0 0-3.19l-18.272-18.272Z" style="fill:#b93e43;fill-rule:nonzero"/><path d="M207.16 51.345c20.786 0 31.993 9.333 29.4 25.195-2.286 13.983-15.549 31.894-37.566 50.818-44.472 38.223-111.345 69.133-150.154 69.133-20.786 0-31.993-9.333-29.4-25.195 2.286-13.983 15.549-31.894 37.566-50.818 44.472-38.223 111.345-69.133 150.154-69.133Zm0 9.071c-36.344 0-101.275 30.013-144.241 66.942-20.543 17.656-32.668 34.03-34.526 45.401-1.552 9.492 4.654 14.66 20.447 14.66 36.344 0 101.275-30.012 144.241-66.941 20.543-17.657 32.668-34.03 34.526-45.402 1.552-9.492-4.654-14.66-20.447-14.66ZM65.979 97.587c0-.133-5.602-17.066-5.602-17.066l8.379 2.394-.101-10.007 8.318 3.314 2.379-8.294 12.222 10.89" style="fill:#b93e43;fill-rule:nonzero"/></svg>